Coordinates
version=1
nRows=10
nColumns=40
inDegrees=yes

Units are S.I. units (second, meters, Newtons, ...)
Angles are in degrees.

endheader
time	pelvis_tilt	pelvis_list	pelvis_rotation	pelvis_tx	pelvis_ty	pelvis_tz	hip_flexion_r	hip_adduction_r	hip_rotation_r	knee_angle_r	knee_angle_r_beta	ankle_angle_r	subtalar_angle_r	mtp_angle_r	hip_flexion_l	hip_adduction_l	hip_rotation_l	knee_angle_l	knee_angle_l_beta	ankle_angle_l	subtalar_angle_l	mtp_angle_l	lumbar_extension	lumbar_bending	lumbar_rotation	arm_flex_r	arm_add_r	arm_rot_r	elbow_flex_r	pro_sup_r	wrist_flex_r	wrist_dev_r	arm_flex_l	arm_add_l	arm_rot_l	elbow_flex_l	pro_sup_l	wrist_flex_l	wrist_dev_l
      0.59000000	     -2.01153831	     -2.14730522	      0.89579437	     -0.55093157	      0.89063221	     -1.04071958	     27.46397876	     -3.05843925	    -13.88140572	    -48.12994709	     -0.84002605	      4.12162937	    -16.37912733	     20.72724266	      9.18943928	      1.89185234	      7.21154370	    -27.17452767	     -0.47428498	     14.30629711	      6.68197752	      0.73564873	     -5.20831658	     -0.26787517	     -7.59346322	     -2.88545201	     -7.57006034	    -13.01805235	     27.28953186	     89.95437384	      0.00000000	      0.00000000	      6.19749135	     12.39776207	     20.18711386	     41.77027861	     89.95437384	      0.00000000	      0.00000000
      0.60000000	     -2.36600883	     -1.84042469	      1.01453085	     -0.54340889	      0.88956251	     -1.04099720	     28.33726790	     -3.54758581	    -14.11953363	    -45.80397561	     -0.79943018	      4.17699194	    -15.84240893	     20.41144615	      8.97723887	      1.60408193	      7.53595955	    -27.10288789	     -0.47303463	     14.42408392	      6.43573280	      0.62826961	     -4.88254367	     -0.54060385	     -7.63227407	     -3.21621942	     -7.58584702	    -13.06227497	     27.27890114	     89.95437384	      0.00000000	      0.00000000	      6.64392387	     12.53892697	     20.15303385	     42.57632856	     89.95437384	      0.00000000	      0.00000000
      0.61000000	     -1.89655093	     -2.40369971	      1.29704454	     -0.53526128	      0.89008870	     -1.04053241	     27.71390557	     -2.78851187	    -14.31801744	    -42.45202257	     -0.74092757	      3.95168989	    -15.26424027	     20.04666732	      7.72231115	      2.44983442	      7.80596225	    -26.74654214	     -0.46681522	     14.53621141	      5.11136436	     -0.25073817	     -5.45924349	      0.11177436	     -7.97555212	     -3.05722411	     -7.46461986	    -13.54972976	     26.86869453	     89.95437384	      0.00000000	      0.00000000	      6.95712783	     12.68969595	     20.32909666	     43.52385357	     89.95437384	      0.00000000	      0.00000000
      0.62000000	     -2.08568796	     -2.48410354	      1.48869856	     -0.52771836	      0.88931828	     -1.04032312	     28.06115829	     -2.73139975	    -14.50149713	    -39.53409400	     -0.69000011	      4.02542492	    -14.32292435	     19.55536677	      7.39122781	      2.65619008	      8.01465231	    -26.74690368	     -0.46682153	     14.72798141	      4.60258897	     -0.86833900	     -5.33952571	      0.24629576	     -8.17214790	     -3.11079395	     -7.41384926	    -13.76274666	     26.65851991	     89.95437384	      0.00000000	      0.00000000	      7.28819345	     12.87951371	     20.28995498	     44.41967449	     89.95437384	      0.00000000	      0.00000000
      0.63000000	     -2.30061080	     -2.49132747	      1.61447672	     -0.52025320	      0.88852188	     -1.04010087	     28.38458501	     -2.69856411	    -14.54915159	    -36.56911379	     -0.63825144	      4.19117359	    -13.37612137	     19.09850925	      7.05900879	      2.73247534	      8.08438003	    -26.67691242	     -0.46559996	     14.87074350	      4.24620495	     -1.37808909	     -5.19731625	      0.30914982	     -8.31229761	     -3.15171717	     -7.35836849	    -14.01419841	     26.45771101	     89.95437384	      0.00000000	      0.00000000	      7.63640420	     13.05623789	     20.23868773	     45.21662577	     89.95437384	      0.00000000	      0.00000000
      0.64000000	     -2.52785642	     -2.43517688	      1.83688370	     -0.51263694	      0.88763729	     -1.03992344	     28.67354352	     -2.80403389	    -14.67916942	    -33.71534652	     -0.58844381	      4.37898051	    -12.36853509	     18.63871538	      6.75031038	      2.73071261	      8.02935521	    -26.64034334	     -0.46496171	     14.96046723	      3.91892715	     -1.83220426	     -5.00741896	      0.28775093	     -8.51306713	     -3.25868431	     -7.29312109	    -14.22663669	     26.22090310	     89.95437384	      0.00000000	      0.00000000	      7.97021192	     13.22374499	     20.16509497	     45.99383383	     89.95437384	      0.00000000	      0.00000000
      0.65000000	     -2.93544198	     -2.22328060	      2.04486367	     -0.50530229	      0.88642850	     -1.03981012	     29.23536451	     -3.09174577	    -14.68156532	    -31.06855530	     -0.54224858	      4.46797168	    -11.38965697	     18.30714646	      6.66917069	      2.51724557	      7.94169740	    -26.63065222	     -0.46479256	     15.08975123	      3.73018127	     -2.01874299	     -4.64693884	      0.11219943	     -8.75029707	     -3.36166903	     -7.24579191	    -14.29153828	     26.13390394	     89.95437384	      0.00000000	      0.00000000	      8.26195015	     13.43343652	     20.06110615	     46.74730700	     89.95437384	      0.00000000	      0.00000000
      0.66000000	     -2.88540916	     -2.31710094	      2.34538224	     -0.49742442	      0.88594163	     -1.03957489	     29.11251397	     -3.16420999	    -15.44058224	    -28.36998946	     -0.49514972	      4.50128512	     -9.95312119	     17.63245195	      6.07486982	      2.73663307	      7.96748178	    -26.64432963	     -0.46503128	     15.17407385	      3.40625679	     -2.66442349	     -4.77811470	      0.28923716	     -8.97091271	     -3.39186278	     -7.15882281	    -14.74763585	     25.92579002	     89.95437384	      0.00000000	      0.00000000	      8.65043125	     13.52464722	     20.07810001	     47.38303457	     89.95437384	      0.00000000	      0.00000000
      0.67000000	     -3.00099778	     -2.24482954	      2.59809113	     -0.48950759	      0.88514363	     -1.03929350	     29.22404953	     -3.37609418	    -16.08597463	    -25.90958801	     -0.45220762	      4.38252659	     -8.50945965	     16.47661580	      5.62116134	      2.72962202	      7.92432618	    -26.58903599	     -0.46406622	     15.17375715	      3.13452143	     -3.71245320	     -4.69173116	      0.27113979	     -9.21425039	     -3.45225248	     -7.10758467	    -14.85497156	     25.70491657	     89.95437384	      0.00000000	      0.00000000	      8.91993035	     13.67184815	     20.03310219	     48.02574627	     89.95437384	      0.00000000	      0.00000000
      0.68000000	     -3.35789123	     -1.94967580	      2.70139769	     -0.48171289	      0.88388659	     -1.03877576	     29.85126137	     -3.75514974	    -16.52408935	    -24.10362987	     -0.42068770	      4.17221140	     -7.85551034	     16.32626051	      5.46541232	      2.47872570	      8.07850495	    -26.66181686	     -0.46533649	     15.29055902	      3.09551456	     -3.77584515	     -4.36389320	     -0.01727395	     -9.21894549	     -3.66607451	     -7.03946321	    -14.96896614	     25.68461640	     89.95437384	      0.00000000	      0.00000000	      9.23339682	     13.77707980	     19.96463953	     48.58896577	     89.95437384	      0.00000000	      0.00000000
